<?xml version="1.0" encoding="iso-8859-1"?>
<!-- Generator: Adobe Illustrator 19.0.0, SVG Export Plug-In . SVG Version: 6.00 Build 0)  -->
<svg version="1.1" id="Layer_1" xmlns="http://www.w3.org/2000/svg" xmlns:xlink="http://www.w3.org/1999/xlink" x="0px" y="0px"
	 viewBox="0 0 496 496" style="enable-background:new 0 0 496 496;" xml:space="preserve">
<path style="fill:#DD2A73;" d="M496,476.8c0,10.4-8.8,19.2-19.2,19.2H19.2C8.8,496,0,487.2,0,476.8V19.2C0,8.8,8.8,0,19.2,0h457.6
	C487.2,0,496,8.8,496,19.2V476.8z"/>
<path style="fill:#D31C70;" d="M463.2,480c9.6,0,17.6-8,17.6-17.6V79.2H14.4"/>
<path style="fill:#FDFFFF;" d="M395.2,39.2c0,9.6-8,17.6-17.6,17.6H32c-9.6,0-8-8-8-17.6l0,0c0-9.6-1.6-17.6,8-17.6h345.6
	C387.2,22.4,395.2,29.6,395.2,39.2L395.2,39.2z"/>
<path style="fill:#E6F3F4;" d="M24,39.2L24,39.2c0-9.6-1.6-17.6,8-17.6h345.6c9.6,0,17.6,8,17.6,17.6l0,0"/>
<circle style="opacity:0.4;fill:#B1BCBC;enable-background:new    ;" cx="426.4" cy="41.6" r="8.8"/>
<circle style="fill:#FFFFFF;" cx="426.4" cy="37.6" r="8.8"/>
<path style="fill:#E8EFEE;" d="M420,31.2c3.2-3.2,9.6-3.2,12.8,0c3.2,3.2,3.2,9.6,0,12.8"/>
<circle style="opacity:0.4;fill:#B1BCBC;enable-background:new    ;" cx="462.4" cy="41.6" r="8.8"/>
<circle style="fill:#FFFFFF;" cx="462.4" cy="37.6" r="8.8"/>
<path style="fill:#E8EFEE;" d="M456,31.2c3.2-3.2,9.6-3.2,12.8,0c3.2,3.2,3.2,9.6,0,12.8"/>
<path style="fill:#DD2A73;" d="M100.8,32l-0.8-0.8h-2.4c-0.8,0-0.8,0-0.8,0.8l-1.6,6.4l0,0l0,0L92.8,32c-0.8,0-0.8,0-1.6,0h-2.4
	C88,32,88,32,88,32.8L85.6,40l0,0l0,0L84,33.6c0-1.6,0-1.6-0.8-1.6h-2.4H80h-0.8h-2.4C76,32,76,32,76,32.8l-1.6,6.4l0,0l0,0L72,32.8
	c0-0.8-0.8-0.8-1.6-0.8h-1.6c-0.8,0-0.8,0-1.6,0.8l-1.6,6.4l0,0l0,0l-2.4-6.4c0-0.8,0-0.8-0.8-0.8H60h-0.8c0,0,0,0-0.8,0H56
	c0,0-0.8,0-0.8,0.8l-1.6,6.4l0,0l0,0l-2.4-6.4c0-0.8-0.8-0.8-1.6-0.8H48c-0.8,0-0.8,0-0.8,0.8l-2.4,6.4l0,0l0,0l-1.6-6.4
	C42.4,32,42.4,32,41.6,32h-2.4c0,0-0.8,0-0.8,0.8v0.8l4,13.6c0,0.8,0.8,0.8,0.8,0.8h2.4c0.8,0,0.8,0,0.8-0.8l2.4-7.2c0,0,0,0,0-0.8
	c0,0,0,0,0,0.8l2.4,6.4c0,0.8,0.8,0.8,0.8,0.8h2.4c0.8,0,0.8,0,0.8-0.8l4-12l3.2,12c0,0.8,0.8,0.8,0.8,0.8h2.4c0.8,0,0.8,0,0.8-0.8
	l3.2-6.4c0,0,0,0,0-0.8c0,0,0,0,0,0.8l2.4,6.4c0,0.8,0.8,0.8,0.8,0.8h2.4c0.8,0,0.8,0,0.8-0.8l4-12l3.2,12c0,0.8,0.8,0.8,0.8,0.8
	h2.4c0.8,0,0.8,0,0.8-0.8l3.2-6.4c0,0,0,0,0-0.8c0,0,0,0,0,0.8l2.4,6.4c0,0.8,0.8,0.8,0.8,0.8H96c0.8,0,0.8,0,0.8-0.8l4-13.6
	C101.6,32.8,101.6,32,100.8,32z"/>
<path style="fill:#C10E68;" d="M396,309.6h-12v-80c0-4-3.2-8-8-8h-20.8c-2.4,0-4.8,1.6-6.4,3.2L304,289.6
	c-2.4-44-22.4-70.4-54.4-70.4c-34.4,0-56.8,32-56.8,81.6c0,3.2,0,5.6,0.8,8.8H192v-80c0-4-3.2-8-8-8h-20.8c-2.4,0-4.8,1.6-6.4,3.2
	l-63.2,90.4c-0.8,1.6-1.6,3.2-1.6,4.8v12.8c0,4,3.2,8,8,8h58.4V372c0,4,3.2,8,8,8H184c4,0,8-3.2,8-8v-31.2h7.2
	c8.8,25.6,25.6,40.8,48.8,40.8c24.8,0,42.4-14.4,51.2-40.8h52V372c0,4,3.2,8,8,8h18.4c4,0,8-3.2,8-8v-31.2h12c4,0,8-3.2,8-8v-15.2
	C404,312.8,400.8,309.6,396,309.6z M157.6,309.6h-24l24-32.8V309.6z M248.8,351.2c-12.8,0-20.8-20-20.8-50.4s8.8-51.2,21.6-51.2
	c19.2,0,20.8,35.2,20.8,50.4C269.6,315.2,268,351.2,248.8,351.2z M350.4,309.6h-24l24-32.8V309.6z"/>
<path style="fill:#FFFFFF;" d="M396,284h-12v-80c0-4-3.2-8-8-8h-20.8c-2.4,0-4.8,1.6-6.4,3.2l-44.8,64c-2.4-44-22.4-70.4-54.4-70.4
	c-34.4,0-56.8,32-56.8,81.6c0,3.2,0,5.6,0.8,8.8H192v-80c0-4-3.2-8-8-8h-20.8c-2.4,0-4.8,1.6-6.4,3.2l-63.2,90.4
	c-0.8,1.6-1.6,3.2-1.6,4.8v12.8c0,4,3.2,8,8,8h58.4v31.2c0,4,3.2,8,8,8H184c4,0,8-3.2,8-8v-31.2h7.2c8.8,25.6,25.6,40.8,48.8,40.8
	c24.8,0,42.4-14.4,51.2-40.8h52v31.2c0,4,3.2,8,8,8h18.4c4,0,8-3.2,8-8v-31.2h12c4,0,8-3.2,8-8v-15.2C404,287.2,400.8,284,396,284z
	 M157.6,284h-24l24-32.8V284z M248.8,324.8c-12.8,0-20.8-20-20.8-50.4s8.8-51.2,21.6-51.2c19.2,0,20.8,35.2,20.8,50.4
	C269.6,288.8,268,324.8,248.8,324.8z M350.4,284h-24l24-32.8V284z"/>
<g>
</g>
<g>
</g>
<g>
</g>
<g>
</g>
<g>
</g>
<g>
</g>
<g>
</g>
<g>
</g>
<g>
</g>
<g>
</g>
<g>
</g>
<g>
</g>
<g>
</g>
<g>
</g>
<g>
</g>
</svg>
